<svg width="19" height="19" viewBox="0 0 19 19" fill="none" xmlns="http://www.w3.org/2000/svg">
<path d="M9.40625 18.9167C8.90325 18.9161 8.42062 18.7178 8.0625 18.3646L1.38542 11.6771C1.21408 11.5067 1.10729 11.2821 1.08334 11.0417L0.166671 1.30209C0.152638 1.14952 0.172435 0.995729 0.224651 0.851686C0.276866 0.707643 0.360214 0.576892 0.468754 0.468754C0.576892 0.360214 0.707643 0.276866 0.851686 0.224651C0.995729 0.172435 1.14952 0.152638 1.30209 0.166671L11.0417 1.08334C11.2821 1.10729 11.5067 1.21408 11.6771 1.38542L18.3646 8.0625C18.7189 8.41788 18.9179 8.89923 18.9179 9.40104C18.9179 9.90286 18.7189 10.3842 18.3646 10.7396L10.7396 18.3646C10.3853 18.7172 9.9061 18.9156 9.40625 18.9167ZM3.15625 10.4688L9.40625 16.7188L16.75 9.375L10.5 3.125L2.36459 2.36459L3.15625 10.4688Z" fill="#FFC700"/>
</svg>
